<?xml version="1.0" standalone="no"?><!DOCTYPE svg PUBLIC "-//W3C//DTD SVG 1.1//EN" "http://www.w3.org/Graphics/SVG/1.1/DTD/svg11.dtd"><svg class="icon" width="64px" height="64.00px" viewBox="0 0 1024 1024" version="1.1" xmlns="http://www.w3.org/2000/svg"><path d="M55.554 885.865h822.804v90.088H55.554z" fill="#005CFF" /><path d="M638.123 621.607H247.742c-18.018 0-30.03-12.012-30.03-30.03s12.012-30.029 30.03-30.029h390.381c18.018 0 30.03 12.012 30.03 30.03 0 15.014-12.012 30.029-30.03 30.029z m0 141.138H247.742c-18.018 0-30.03-12.012-30.03-30.03s12.012-30.029 30.03-30.029h390.381c18.018 0 30.03 12.012 30.03 30.03s-12.012 30.029-30.03 30.029z m9.009-426.417H433.924c-18.018 0-30.03-12.011-30.03-30.029s12.012-30.03 30.03-30.03h213.208c18.018 0 30.03 12.013 30.03 30.03s-15.015 30.03-30.03 30.03z m-9.009 141.138H247.742c-18.018 0-30.03-12.011-30.03-30.03s12.012-30.028 30.03-30.028h390.381c18.018 0 30.03 12.011 30.03 30.029s-12.012 30.03-30.03 30.03z" fill="#5CB6FF" /><path d="M770.252 1011.988H130.628c-60.06 0-108.106-54.053-108.106-117.114V333.326c0-18.018 6.006-33.033 18.018-45.044L277.77 21.02C289.783 6.006 304.798 0 322.815 0h447.437c60.059 0 108.106 54.053 108.106 117.114v774.757c0 66.064-48.047 120.117-108.106 120.117zM322.815 60.058L82.581 327.32v567.554c0 33.032 21.02 57.056 48.047 57.056h639.624c27.027 0 48.047-27.027 48.047-57.056v-777.76c0-33.032-21.02-57.055-48.047-57.055H322.815z" fill="#424242" /><path d="M334.827 57.056l3.003 228.223c0 33.032-24.024 60.058-54.053 60.058L73.572 348.34" fill="#D9EBF4" /><path d="M73.572 378.37v-60.06l210.205-3.002c12.012 0 24.024-15.015 24.024-30.03l-3.003-228.222h60.058l3.003 228.223c0 51.05-36.035 90.088-84.082 93.09H73.572z" fill="#424242" /><path d="M490.979 753.736a240.235 240.235 0 1 0 480.47 0 240.235 240.235 0 1 0-480.47 0z" fill="#2488FF" /><path d="M731.214 1024c-69.067 0-138.135-27.026-192.188-78.076-105.102-105.103-105.102-276.27 0-381.373s276.27-105.102 381.373 0 105.102 276.27 0 381.373C869.349 996.974 800.282 1024 731.214 1024z m0-480.47c-54.053 0-108.105 21.021-150.147 60.06-81.079 81.079-81.079 216.21 0 297.29s216.212 81.079 297.29 0 81.08-216.211 0-297.29c-39.037-39.039-93.09-60.06-147.143-60.06z" fill="#FFFFFF" /><path d="M818.3 783.765H638.122c-18.017 0-30.03-12.011-30.03-30.029s12.013-30.03 30.03-30.03H818.3c18.018 0 30.03 12.012 30.03 30.03s-12.012 30.03-30.03 30.03z" fill="#FFFFFF" /><path d="M728.211 873.853c-18.017 0-30.03-12.011-30.03-30.029V660.645c0-18.017 12.013-30.03 30.03-30.03s30.03 12.013 30.03 30.03v183.179c0 18.018-12.012 30.03-30.03 30.03z" fill="#FFFFFF" /></svg>