<?xml version="1.0" standalone="no"?><!DOCTYPE svg PUBLIC "-//W3C//DTD SVG 1.1//EN" "http://www.w3.org/Graphics/SVG/1.1/DTD/svg11.dtd"><svg class="icon" width="64px" height="64.00px" viewBox="0 0 1024 1024" version="1.1" xmlns="http://www.w3.org/2000/svg"><path d="M745.006 781.796C689.82 705.15 585.581 653.03 462.946 653.03c-122.635 0-229.94 55.186-285.126 134.898 73.581 64.383 171.689 104.24 278.994 104.24 113.437 0 214.611-42.922 288.192-110.372z" fill="#D9EBF4" /><path d="M459.88 922.826c-110.371 0-217.676-39.856-300.455-113.437l-21.46-18.395 15.328-21.461C214.611 677.557 334.18 622.37 462.946 622.37c125.7 0 245.27 55.186 306.587 141.03l15.33 21.461-21.462 18.395c-79.712 76.647-190.084 119.57-303.52 119.57z m-239.137-141.03c67.449 52.12 153.293 79.713 239.137 79.713 88.91 0 174.755-30.659 242.204-82.778-55.186-58.252-144.096-95.042-239.138-95.042-98.108 0-187.018 36.79-242.203 98.107z" fill="#2488FF" /><path d="M36.79 469.078h852.312v61.317H36.79z" fill="#5CB6FF" /><path d="M459.88 922.826c-110.371 0-217.676-39.856-300.455-113.437l-21.46-18.395 15.328-21.461C214.611 677.557 334.18 622.37 462.946 622.37c125.7 0 245.27 55.186 306.587 141.03l15.33 21.461-21.462 18.395c-79.712 76.647-190.084 119.57-303.52 119.57z m-239.137-141.03c67.449 52.12 153.293 79.713 239.137 79.713 88.91 0 174.755-30.659 242.204-82.778-55.186-58.252-144.096-95.042-239.138-95.042-98.108 0-187.018 36.79-242.203 98.107z" fill="#2488FF" /><path d="M462.946 321.916c137.964 0 254.467-67.449 300.455-162.49C686.754 82.777 579.45 36.79 462.946 36.79c-116.503 0-223.808 45.988-300.455 122.635 45.988 95.042 162.491 162.491 300.455 162.491z" fill="#D9EBF4" /><path d="M462.946 352.575c-147.162 0-275.928-70.515-328.048-177.82l-9.197-18.396 15.329-15.33C226.874 55.187 340.31 6.133 462.946 6.133S699.018 52.12 784.862 137.964l15.33 18.395-9.198 18.395c-52.12 107.306-180.886 177.82-328.048 177.82zM199.281 168.623c49.054 73.58 150.228 122.634 263.665 122.634 113.437 0 214.61-49.053 263.665-125.7-73.581-64.383-165.557-98.108-263.665-98.108-98.108 0-190.084 36.79-263.665 101.174z" fill="#2488FF" /><path d="M432.287 58.251h61.318v852.312h-61.318z" fill="#5CB6FF" /><path d="M462.946 889.102c-134.898 0-242.203-187.018-242.203-426.156S328.048 36.79 462.946 36.79 705.15 223.808 705.15 462.946 597.844 889.102 462.946 889.102z m0-787.928c-98.108 0-180.886 165.557-180.886 364.838 0 196.216 82.778 361.772 180.886 361.772s180.886-165.556 180.886-364.838c0-196.215-82.778-361.772-180.886-361.772z" fill="#5CB6FF" /><path d="M462.946 352.575c-147.162 0-275.928-70.515-328.048-177.82l-9.197-18.396 15.329-15.33C226.874 55.187 340.31 6.133 462.946 6.133S699.018 52.12 784.862 137.964l15.33 18.395-9.198 18.395c-52.12 107.306-180.886 177.82-328.048 177.82zM199.281 168.623c49.054 73.58 150.228 122.634 263.665 122.634 113.437 0 214.61-49.053 263.665-125.7-73.581-64.383-165.557-98.108-263.665-98.108-98.108 0-190.084 36.79-263.665 101.174z m260.6 754.203c-110.372 0-217.677-39.856-300.456-113.437l-21.46-18.395 15.328-21.461C214.611 677.557 334.18 622.37 462.946 622.37c125.7 0 245.27 55.186 306.587 141.03l15.33 21.461-21.462 18.395c-79.712 76.647-190.084 119.57-303.52 119.57z m-239.138-141.03c67.449 52.12 153.293 79.713 239.137 79.713 88.91 0 174.755-30.659 242.204-82.778-55.186-58.252-144.096-95.042-239.138-95.042-98.108 0-187.018 36.79-242.203 98.107z" fill="#2488FF" /><path d="M462.946 919.76c-254.467 0-459.88-205.413-459.88-459.88S208.479 0 462.946 0s459.88 205.413 459.88 459.88-205.413 459.88-459.88 459.88z m0-858.443c-220.742 0-398.563 177.82-398.563 398.563s177.82 398.563 398.563 398.563S861.51 680.623 861.51 459.88 683.689 61.317 462.946 61.317z" fill="#424242" /><path d="M990.275 702.084c0-119.569-95.041-214.61-214.61-214.61s-214.611 95.041-214.611 214.61c0 64.383 27.593 119.569 70.515 159.425l122.635 122.635c12.263 12.263 30.658 12.263 42.922 0L919.76 861.509c42.923-39.856 70.515-95.042 70.515-159.425z" fill="#FFFFFF" /><path d="M775.665 1024c-15.33 0-30.659-6.132-42.922-18.395L610.108 882.97c-49.054-45.988-79.713-110.371-79.713-180.886 0-134.898 110.371-245.27 245.27-245.27s245.27 110.372 245.27 245.27c0 67.449-30.66 134.898-79.713 180.886l-122.635 122.635c-12.264 12.263-27.593 18.395-42.922 18.395z m0-505.868c-101.174 0-183.952 82.778-183.952 183.952 0 52.12 21.46 101.173 61.317 134.898l125.7 125.7 122.635-122.634c39.857-36.79 61.318-85.844 61.318-137.964-3.066-101.174-85.845-183.952-187.018-183.952z" fill="#424242" /><path d="M705.15 702.084a70.515 70.515 0 1 0 141.03 0 70.515 70.515 0 1 0-141.03 0z" fill="#FFFFFF" /><path d="M775.665 806.323c-55.186 0-101.174-45.988-101.174-101.173s45.988-101.174 101.174-101.174 101.173 45.988 101.173 101.174-45.988 101.173-101.173 101.173z m0-144.095c-21.461 0-39.857 18.395-39.857 39.856s18.396 39.856 39.857 39.856 39.856-18.395 39.856-39.856-18.395-39.856-39.856-39.856z" fill="#424242" /></svg>