<?xml version="1.0" standalone="no"?><!DOCTYPE svg PUBLIC "-//W3C//DTD SVG 1.1//EN" "http://www.w3.org/Graphics/SVG/1.1/DTD/svg11.dtd"><svg class="icon" width="64px" height="64.00px" viewBox="0 0 1024 1024" version="1.1" xmlns="http://www.w3.org/2000/svg"><path d="M366.786 844.875c-17.912 0-29.854-11.942-29.854-29.855V483.638c0-17.912 11.942-29.854 29.854-29.854s29.854 11.942 29.854 29.854V815.02c0 17.913-14.927 29.855-29.854 29.855z m137.33 0c-17.913 0-29.855-11.942-29.855-29.855V483.638c0-17.912 11.942-29.854 29.855-29.854s29.854 11.942 29.854 29.854V815.02c0 17.913-11.942 29.855-29.854 29.855z m137.33 0c-17.913 0-29.855-11.942-29.855-29.855V483.638c0-17.912 11.942-29.854 29.854-29.854s29.854 11.942 29.854 29.854V815.02c0 17.913-11.941 29.855-29.854 29.855z" fill="#5CB6FF" /><path d="M357.83 110.46V65.68c0-20.899 14.927-35.826 29.854-35.826H599.65c17.913 0 29.854 17.913 29.854 35.825v44.782" fill="#D9EBF4" /><path d="M662.343 110.46h-59.708V65.68c0-2.986-2.986-5.972-2.986-5.972H387.684v50.753h-59.708V65.679C327.976 29.854 354.845 0 387.684 0H599.65c32.84 0 59.709 29.854 59.709 65.68v44.78z" fill="#2488FF" /><path d="M172.734 346.309h650.822v59.708H172.734z" fill="#005CFF" /><path d="M704.139 1024h-417.96c-53.737 0-98.518-44.781-101.504-101.504L133.923 286.6h722.473l-50.753 635.895C802.658 979.219 757.877 1024 704.14 1024zM199.603 346.309l44.78 573.201c2.986 26.869 20.899 44.782 41.797 44.782h420.944c20.898 0 38.81-20.898 41.796-44.782l44.782-573.201h-594.1z" fill="#2488FF" /><path d="M922.075 531.405c23.883-62.694-2.986-131.358-59.709-167.183L820.57 480.653l-86.577-26.869 41.796-116.431c-68.665-2.986-134.344 35.825-158.227 98.519-23.884 59.708 0 125.387 50.752 164.198l-74.636 203.009c-38.81 8.956-68.664 35.825-80.606 71.65-11.942 44.781 11.942 89.563 56.723 107.475 56.723 23.883 125.388-2.985 143.3-56.723 11.942-32.84 2.986-68.665-17.912-92.548l74.635-203.009c71.65 0 131.359-38.81 152.257-98.519z" fill="#FFFFFF" /><path d="M617.562 1021.015c-20.898 0-38.81-2.986-56.723-11.942-56.723-23.883-89.563-86.577-74.636-143.3 11.942-41.796 41.796-77.621 86.577-89.563l62.694-170.17c-50.752-47.766-68.664-119.416-44.781-182.11 26.869-74.636 104.49-122.402 188.082-119.417l41.795 2.986-47.766 125.387 29.854 8.957 47.767-125.388 29.854 20.898c68.665 44.781 98.519 128.373 71.65 203.009-23.883 62.693-83.592 110.46-155.242 116.431l-62.694 170.17c20.898 32.839 26.869 71.65 11.942 107.474-11.942 32.84-38.81 59.709-71.65 74.636-17.913 8.956-35.825 11.942-56.723 11.942z m116.431-650.823c-38.81 11.942-71.65 38.81-86.577 74.636-17.913 44.781 0 98.519 41.796 128.373l17.912 11.942-89.562 238.834-14.927 2.985c-29.855 5.97-50.753 23.883-56.723 50.752-5.971 29.855 8.956 59.709 38.81 74.636 20.898 8.956 44.781 8.956 65.68 0 17.912-8.956 32.839-20.898 38.81-38.81 8.956-20.899 2.985-44.782-11.942-62.695l-11.942-11.941 89.563-238.834h20.898c53.738 0 104.49-32.84 122.402-80.606 14.928-35.826 5.971-77.621-17.912-107.476l-41.796 104.49-143.3-44.781 38.81-101.505zM928.046 253.76H62.273v-38.81c0-62.693 50.752-116.431 116.432-116.431h632.91c62.693 0 116.43 50.752 116.43 116.431v38.81z m-803.079-59.708h737.4c-8.957-20.897-29.855-35.825-50.753-35.825h-632.91c-23.883 2.986-44.78 14.928-53.737 35.825z" fill="#424242" /><path d="M560.839 898.612a29.854 29.854 0 1 0 59.708 0 29.854 29.854 0 1 0-59.708 0z" fill="#424242" /></svg>