<?xml version="1.0" standalone="no"?><!DOCTYPE svg PUBLIC "-//W3C//DTD SVG 1.1//EN" "http://www.w3.org/Graphics/SVG/1.1/DTD/svg11.dtd"><svg class="icon" width="64px" height="64.00px" viewBox="0 0 1024 1024" version="1.1" xmlns="http://www.w3.org/2000/svg"><path d="M66.460526 891.077947h694.739824v90.618673H66.460526z" fill="#005CFF" /><path d="M598.086739 598.079239H244.676916c-18.123735 0-30.206558-12.081823-30.206558-30.205557s12.082823-30.205558 30.206558-30.205558h356.430779c18.123735 0 30.206558 12.081823 30.206557 30.205558s-15.103779 30.205558-33.227513 30.205557z m0 141.96892H244.676916c-18.123735 0-30.206558-12.082823-30.206558-30.205557s12.082823-30.206558 30.206558-30.206558h356.430779c18.123735 0 30.206558 12.082823 30.206557 30.206558s-15.103779 30.205558-33.227513 30.205557z m0-428.925716H401.747615c-18.123735 0-30.205558-12.082823-30.205558-30.206558s12.081823-30.205558 30.205558-30.205558h196.339124c18.123735 0 30.206558 12.081823 30.206557 30.205558s-12.082823 30.206558-30.206557 30.206558z m0 141.96792H244.676916c-18.123735 0-30.206558-12.081823-30.206558-30.205558s12.082823-30.206558 30.206558-30.206557h356.430779c18.123735 0 30.206558 12.082823 30.206557 30.206557s-15.103779 30.205558-33.227513 30.205558z" fill="#5CB6FF" /><path d="M709.850102 1017.944089H111.769863c-60.412115 0-108.741407-54.371204-108.741407-117.804275V335.287089c0-18.123735 6.039912-33.226513 15.102778-45.309337l235.606549-268.833062C265.821606 6.039912 280.923385 0 299.048119 0h410.802983c60.411115 0 108.741407 54.371204 108.741407 117.803274v779.316585c0 66.453027-48.329292 120.82423-108.741407 120.82423zM299.047119 60.412115L63.440571 329.246177v570.893637c0 33.227513 21.14369 57.392159 48.329292 57.39216h601.101195c27.184602 0 48.329292-27.185602 48.329292-57.39216V117.803274c-3.020956-30.205558-24.165646-57.391159-51.350248-57.391159H299.047119z" fill="#424242" /><path d="M311.129942 57.391159l3.019956 229.566638c0 33.226513-24.164646 60.412115-54.370203 60.412115l-205.400992 3.019955" fill="#D9EBF4" /><path d="M51.357748 380.596425v-60.412115l205.400991-3.019956c12.082823 0 24.164646-15.103779 24.164646-30.206557V57.391159h60.412115l3.020956 229.566638c0 51.349248-36.247469 90.618673-81.556806 93.638628H51.357748z" fill="#424242" /><path d="M918.271049 480.275965l-93.638629 12.082823-39.267424-93.638629c-21.14469-6.041911-45.309336-9.061867-69.473983-9.061867-24.164646 0-48.329292 3.019956-69.473982 9.061867l-39.268425 93.638629-93.638628-12.082823c-33.226513 36.247469-57.391159 78.53585-69.473982 126.865141l57.392159 81.556806-57.392159 81.555805c12.082823 48.329292 36.247469 93.638628 69.473982 126.866142l93.638628-12.082823 39.268425 93.638628c21.14369 6.041911 45.309336 9.061867 69.473982 9.061867 24.164646 0 48.329292-3.019956 69.473983-9.061867l39.267424-93.638628 93.638629 12.082823c33.226513-36.247469 57.392159-78.53585 69.473982-126.866142l-57.391159-81.555805 57.391159-81.556806c-15.102779-45.309336-39.267425-90.617673-69.473982-126.865141z" fill="#D9EBF4" /><path d="M715.891013 1023.985c-24.164646 0-51.350248-3.019956-75.514894-9.061867l-15.103778-3.019956-36.246469-84.577761-87.598717 9.061867-9.060867-12.081823c-36.247469-39.268425-63.433071-87.598717-75.514894-141.96792l-3.020956-12.083823 51.349248-75.514894-51.349248-75.514894 3.019956-12.082823c15.103779-51.349248 39.268425-99.67954 75.515894-138.947964l9.061867-12.081823 87.597717 9.061867 36.246469-84.576761 15.103778-3.019956c51.349248-15.103779 102.700496-15.103779 154.050744 0l15.102779 3.019956 36.247469 84.576761 87.597717-9.061867 9.060867 12.082823c36.247469 39.267425 63.433071 87.596717 75.515894 138.947964l3.019955 12.081823-51.349247 75.514894 51.349247 75.514894-3.019955 12.082823c-15.103779 51.350248-39.268425 99.67954-75.515894 138.947965l-9.060867 12.082823-87.598717-9.061868-36.246469 84.576761-15.102779 3.019956c-27.185602 9.061867-54.371204 12.082823-78.53585 12.082823z m-48.329292-66.453026c33.226513 6.040912 63.432071 6.040912 93.638629 0l42.28838-99.68054 102.700496 12.082823c21.14369-27.185602 39.267425-57.391159 48.329292-90.618673l-60.412115-87.596717 60.412115-87.598716c-9.061867-33.225513-27.185602-63.432071-48.329292-90.617673l-102.700496 12.082823-42.28938-99.67954c-33.226513-6.041911-63.432071-6.041911-93.638629 0l-42.28838 99.67854-99.67954-12.081823c-21.14469 27.185602-39.268425 57.392159-48.329292 90.618673l60.412115 87.597716-60.412115 87.596717c9.060867 33.227513 27.184602 63.433071 48.329292 90.618673l102.700495-12.082823 39.267425 99.68054z" fill="#424242" /><path d="M628.293296 691.718867a93.638628 87.597717 90 1 0 175.195434 0 93.638628 87.597717 90 1 0-175.195434 0z" fill="#FFFFFF" /><path d="M715.891013 815.563053c-63.433071 0-117.804274-54.370204-117.804274-123.844186s51.351248-123.845186 117.804274-123.845185 117.803274 54.371204 117.803275 123.845185-54.371204 123.844186-117.803275 123.844186z m0-187.277256c-30.206558 0-57.392159 27.185602-57.392159 63.43307s24.165646 63.432071 57.392159 63.432071c30.205558 0 57.391159-27.185602 57.39116-63.432071s-27.185602-63.433071-57.39116-63.43307z" fill="#424242" /></svg>