<?xml version="1.0" standalone="no"?><!DOCTYPE svg PUBLIC "-//W3C//DTD SVG 1.1//EN" "http://www.w3.org/Graphics/SVG/1.1/DTD/svg11.dtd"><svg class="icon" width="64px" height="64.00px" viewBox="0 0 1024 1024" version="1.1" xmlns="http://www.w3.org/2000/svg"><path d="M224.264 521.873l-73.344-64.881c-11.284-11.284-14.105-28.21-2.82-39.493 11.283-11.284 28.209-14.105 39.492-2.821l36.672 31.03 78.987-76.165c11.283-11.284 28.21-11.284 39.493 0 11.284 11.283 11.284 28.21 0 39.493l-118.48 112.837z m0 200.287l-73.344-64.882c-11.284-11.284-14.105-28.21-2.82-39.493 11.283-11.284 28.209-14.105 39.492-2.82l36.672 31.03 78.987-76.166c11.283-11.284 28.21-11.284 39.493 0 11.284 11.284 11.284 28.21 0 39.493L224.264 722.16z" fill="#2488FF" /><path d="M667.152 1015.537H176.309c-81.808 0-149.51-67.702-149.51-149.51V205.929c0-81.807 67.702-149.51 149.51-149.51h490.843c81.807 0 149.51 67.703 149.51 149.51v660.1c0 81.807-67.703 149.51-149.51 149.51z m-490.843-902.7c-50.777 0-93.091 42.315-93.091 93.091v660.1c0 50.776 42.314 93.09 93.09 93.09h490.844c50.776 0 93.09-42.314 93.09-93.09v-660.1c0-50.776-42.314-93.09-93.09-93.09H176.309z" fill="#424242" /><path d="M317.355 197.466c-22.567 0-42.314-16.926-42.314-39.494v-90.27c0-22.567 19.747-39.493 42.314-39.493s39.493 16.926 39.493 39.493v90.27c0 22.568-19.746 39.494-39.493 39.494z" fill="#D9EBF4" /><path d="M317.355 225.675c-39.493 0-70.523-31.03-70.523-67.703v-90.27C246.832 31.03 277.862 0 317.355 0c36.673 0 67.703 31.03 67.703 67.702v90.27c0 36.673-31.03 67.703-67.703 67.703z m0-169.256c-8.462 0-14.104 5.642-14.104 11.283v90.27c0 5.642 5.642 11.284 14.104 11.284s11.284-5.642 11.284-11.284v-90.27c0-5.641-5.642-11.283-11.284-11.283z" fill="#2488FF" /><path d="M526.105 197.466c-22.568 0-39.493-16.926-39.493-39.494v-90.27c0-22.567 19.746-39.493 39.493-39.493 22.567 0 39.493 16.926 39.493 39.493v90.27c2.82 22.568-16.926 39.494-39.493 39.494z" fill="#D9EBF4" /><path d="M526.105 225.675c-36.672 0-67.703-31.03-67.703-67.703v-90.27C458.402 31.03 489.432 0 526.105 0s67.702 31.03 67.702 67.702v90.27c2.821 36.673-28.21 67.703-67.702 67.703z m0-169.256c-5.642 0-11.284 5.642-11.284 11.283v90.27c0 5.642 5.642 11.284 11.284 11.284s11.283-5.642 11.283-11.284v-90.27c2.821-5.641-2.82-11.283-11.283-11.283z" fill="#2488FF" /><path d="M633.3 496.485H416.088c-16.925 0-28.21-11.284-28.21-28.21s11.285-28.209 28.21-28.209H633.3c16.926 0 28.21 11.284 28.21 28.21s-14.105 28.209-28.21 28.209zM633.3 679.846H416.088c-16.925 0-28.21-11.284-28.21-28.21s11.285-28.209 28.21-28.209H633.3c16.926 0 28.21 11.284 28.21 28.21s-14.105 28.209-28.21 28.209z" fill="#5CB6FF" /><path d="M960.529 547.262c22.567-62.06-2.821-126.942-56.419-163.615l-42.314 112.838-81.807-25.389 42.314-112.837c-67.702-2.821-132.584 33.851-155.151 95.912-22.568 59.24 0 121.3 50.776 157.972L644.584 809.61c-36.672 8.463-67.702 33.851-76.165 70.523-11.284 42.314 14.104 87.45 56.418 107.196 56.42 25.388 121.3-2.821 141.047-53.598 11.284-31.03 2.821-64.882-16.925-90.27l73.344-197.466c56.419-2.82 115.658-39.493 138.226-98.732z" fill="#FFFFFF" /><path d="M664.33 1024c-19.746 0-36.672-2.82-56.418-11.284-56.419-25.388-84.628-81.807-70.524-138.226 11.284-42.314 42.314-73.344 84.629-87.449l62.06-166.435a167 167 0 0 1-42.314-177.719c25.389-70.523 101.554-118.48 183.361-115.658l39.493 2.82-47.956 121.3 28.21 8.464 45.135-121.3 28.209 19.746c67.702 45.135 95.912 124.121 67.702 197.466-22.567 62.06-81.807 107.195-152.33 112.837l-62.06 166.435c19.746 31.03 25.388 70.524 11.283 104.375-11.284 31.03-36.672 56.419-70.523 70.523-11.284 11.284-28.21 14.105-47.956 14.105zM779.99 389.29c-39.493 11.283-73.344 36.671-84.628 73.344-16.926 45.135 0 95.911 39.493 126.942l16.926 11.284-87.45 231.316-16.925 5.642c-28.21 5.642-50.777 25.389-56.419 50.777-8.463 28.21 8.463 59.24 39.493 73.344 19.747 8.463 45.135 8.463 64.882 0 19.746-8.462 31.03-22.567 39.493-39.493 8.463-22.567 2.82-45.135-11.284-62.06l-14.104-14.105 87.449-231.317h19.746c53.598 0 101.554-31.03 118.48-78.986 14.104-36.672 5.641-76.165-19.747-107.196l-36.672 98.733-138.226-42.314 39.493-95.912z" fill="#424242" /><path d="M633.3 902.7a28.21 28.21 0 1 0 56.419 0 28.21 28.21 0 1 0-56.419 0z" fill="#424242" /></svg>