<?xml version="1.0" standalone="no"?><!DOCTYPE svg PUBLIC "-//W3C//DTD SVG 1.1//EN" "http://www.w3.org/Graphics/SVG/1.1/DTD/svg11.dtd"><svg class="icon" width="64px" height="64.00px" viewBox="0 0 1024 1024" version="1.1" xmlns="http://www.w3.org/2000/svg"><path d="M77.136 807.54h585.1v59.795h-585.1z" fill="#005CFF" /><path d="M714.259 551.914H235.894c-16.444 0-29.898-13.454-29.898-29.898s13.454-29.898 29.898-29.898h478.365c16.443 0 29.897 13.454 29.897 29.898s-13.454 29.898-29.897 29.898z m0 134.839H235.894c-16.444 0-29.898-13.454-29.898-29.898s13.454-29.898 29.898-29.898h478.365c16.443 0 29.897 13.454 29.897 29.898s-13.454 29.898-29.897 29.898zM518.428 282.534H235.894c-16.444 0-29.898-13.454-29.898-29.898s13.454-29.897 29.898-29.897h282.534c16.444 0 29.898 13.454 29.898 29.897s-13.454 29.898-29.898 29.898z m195.83 134.84H235.895c-16.444 0-29.898-13.455-29.898-29.898s13.454-29.898 29.898-29.898h478.365c16.443 0 29.897 13.454 29.897 29.898s-13.454 29.897-29.897 29.897z" fill="#5CB6FF" /><path d="M751.93 926.832H198.222c-94.477 0-171.613-77.136-171.613-171.613V130.354C26.61 58.6 84.91 0 156.964 0h636.225c72.054 0 130.354 58.6 130.354 130.354V755.22c0 94.477-77.136 171.613-171.613 171.613zM156.964 59.796c-38.868 0-70.56 31.691-70.56 70.558V755.22c0 61.59 50.229 111.817 111.818 111.817H751.93c61.59 0 111.818-50.228 111.818-111.817V130.354c0-38.867-31.692-70.558-70.56-70.558H156.965z" fill="#424242" /><path d="M489.128 754.92a239.182 239.182 0 1 0 478.365 0 239.182 239.182 0 1 0-478.365 0z" fill="#2488FF" /><path d="M728.31 1024c-148.292 0-269.08-120.787-269.08-269.08s120.788-269.08 269.08-269.08 269.08 120.787 269.08 269.08S876.605 1024 728.31 1024z m0-478.365c-115.405 0-209.284 93.88-209.284 209.285s93.88 209.284 209.285 209.284 209.284-93.879 209.284-209.284-93.879-209.285-209.284-209.285z" fill="#FFFFFF" /><path d="M803.055 862.552c-7.773 0-15.248-2.99-21.227-8.67l-149.49-149.49a29.778 29.778 0 1 1 42.157-42.156l149.489 149.49a29.778 29.778 0 0 1-20.929 50.826z" fill="#FFFFFF" /><path d="M653.566 862.552c-7.773 0-15.248-2.99-21.227-8.67a29.778 29.778 0 0 1 0-42.156l149.489-149.49a29.778 29.778 0 1 1 42.156 42.156l-149.49 149.49c-5.68 5.68-13.453 8.67-20.928 8.67z" fill="#FFFFFF" /></svg>