<?xml version="1.0" standalone="no"?><!DOCTYPE svg PUBLIC "-//W3C//DTD SVG 1.1//EN" "http://www.w3.org/Graphics/SVG/1.1/DTD/svg11.dtd"><svg class="icon" width="64px" height="64.00px" viewBox="0 0 1024 1024" version="1.1" xmlns="http://www.w3.org/2000/svg"><path d="M286.912 549.515a225.088 225.088 0 1 0 450.176 0 225.088 225.088 0 1 0-450.176 0z" fill="#2488FF" /><path d="M703.175 180.07h-382.05c-43.517 0-79.23-35.413-79.23-79.23V79.23c0-43.816 35.713-79.23 79.23-79.23h382.05c43.517 0 78.93 35.414 78.93 79.231v21.909c0 43.517-35.413 78.93-78.93 78.93zM321.125 60.023c-10.504 0-19.207 8.704-19.207 19.208v21.909c0 10.203 8.703 18.907 19.207 18.907h382.05c10.504 0 18.907-8.704 18.907-19.208V79.231c0-10.504-8.403-19.208-18.907-19.208h-382.05z" fill="#005CFF" /><path d="M487.99 660.558c-7.202 0-14.405-2.701-20.407-7.803l-65.426-60.023a29.922 29.922 0 1 1 40.516-44.118l43.817 40.216 94.237-98.739a29.892 29.892 0 1 1 43.217 41.417L509.299 651.555c-5.402 5.702-13.205 9.003-21.308 9.003z" fill="#FFFFFF" /><path d="M51.62 899.751h887.447v60.024H51.62z" fill="#005CFF" /><path d="M891.048 1024H132.952c-55.822 0-101.14-41.716-101.14-92.736V156.36c0-51.32 45.318-92.736 101.14-92.736h58.223c16.506 0 30.011 13.505 30.011 30.012s-13.505 30.011-30.011 30.011h-58.223c-22.509 0-41.116 14.706-41.116 32.713v774.903c0 17.707 18.907 32.713 41.116 32.713h758.096c22.209 0 41.116-15.006 41.116-32.713V156.36c0-18.007-18.607-32.713-41.116-32.713h-53.72c-16.507 0-30.013-13.505-30.013-30.011s13.506-30.012 30.012-30.012h53.721c55.822 0 101.14 41.716 101.14 92.736v774.903c0 51.02-45.318 92.736-101.14 92.736z" fill="#424242" /></svg>