<?xml version="1.0" standalone="no"?><!DOCTYPE svg PUBLIC "-//W3C//DTD SVG 1.1//EN" "http://www.w3.org/Graphics/SVG/1.1/DTD/svg11.dtd"><svg class="icon" width="64px" height="64.00px" viewBox="0 0 1024 1024" version="1.1" xmlns="http://www.w3.org/2000/svg"><path d="M213.333 526.222L139.378 460.8c-11.378-11.378-14.222-28.444-2.845-39.822 11.378-11.378 28.445-14.222 39.823-2.845l36.977 31.29 79.645-76.8c11.378-11.379 28.444-11.379 39.822 0 11.378 11.377 11.378 28.444 0 39.821L213.333 526.222z m0 201.956l-73.955-65.422c-11.378-11.378-14.222-28.445-2.845-39.823 11.378-11.377 28.445-14.222 39.823-2.844l36.977 31.289 79.645-76.8c11.378-11.378 28.444-11.378 39.822 0 11.378 11.378 11.378 28.444 0 39.822L213.333 728.178z" fill="#2488FF" /><path d="M659.911 1024H164.978c-82.49 0-150.756-68.267-150.756-150.756v-665.6c0-82.488 68.267-150.755 150.756-150.755H659.91c82.489 0 150.756 68.267 150.756 150.755v665.6c0 82.49-68.267 150.756-150.756 150.756zM164.978 113.778c-51.2 0-93.867 42.666-93.867 93.866v665.6c0 51.2 42.667 93.867 93.867 93.867H659.91c51.2 0 93.867-42.667 93.867-93.867v-665.6c0-51.2-42.667-93.866-93.867-93.866H164.978z" fill="#424242" /><path d="M307.2 199.111c-22.756 0-42.667-17.067-42.667-39.822V68.267c0-22.756 19.911-39.823 42.667-39.823s39.822 17.067 39.822 39.823v91.022c0 22.755-19.91 39.822-39.822 39.822z" fill="#D9EBF4" /><path d="M307.2 227.556c-39.822 0-71.111-31.29-71.111-68.267V68.267C236.089 31.289 267.378 0 307.2 0c36.978 0 68.267 31.289 68.267 68.267v91.022c0 36.978-31.29 68.267-68.267 68.267z m0-170.667c-8.533 0-14.222 5.689-14.222 11.378v91.022c0 5.689 5.689 11.378 14.222 11.378s11.378-5.69 11.378-11.378V68.267c0-5.69-5.69-11.378-11.378-11.378z" fill="#2488FF" /><path d="M517.689 199.111c-22.756 0-39.822-17.067-39.822-39.822V68.267c0-22.756 19.91-39.823 39.822-39.823 22.755 0 39.822 17.067 39.822 39.823v91.022c2.845 22.755-17.067 39.822-39.822 39.822z" fill="#D9EBF4" /><path d="M517.689 227.556c-36.978 0-68.267-31.29-68.267-68.267V68.267C449.422 31.289 480.712 0 517.69 0s68.267 31.289 68.267 68.267v91.022c2.844 36.978-28.445 68.267-68.267 68.267z m0-170.667c-5.689 0-11.378 5.689-11.378 11.378v91.022c0 5.689 5.689 11.378 11.378 11.378s11.378-5.69 11.378-11.378V68.267c2.844-5.69-2.845-11.378-11.378-11.378z" fill="#2488FF" /><path d="M625.778 500.622H406.756c-17.067 0-28.445-11.378-28.445-28.444s11.378-28.445 28.445-28.445h219.022c17.066 0 28.444 11.378 28.444 28.445S640 500.622 625.778 500.622zM625.778 685.511H406.756c-17.067 0-28.445-11.378-28.445-28.444s11.378-28.445 28.445-28.445h219.022c17.066 0 28.444 11.378 28.444 28.445S640 685.51 625.778 685.51z" fill="#5CB6FF" /><path d="M913.067 514.844l-88.178 11.378-36.978-88.178c-19.911-5.688-42.667-8.533-65.422-8.533-22.756 0-45.511 2.845-65.422 8.533l-36.978 88.178-88.178-11.378c-31.289 34.134-54.044 73.956-65.422 119.467l54.044 76.8-54.044 76.8c11.378 45.511 34.133 88.178 65.422 119.467L620.09 896l36.978 88.178c19.91 5.689 42.666 8.533 65.422 8.533 22.755 0 45.511-2.844 65.422-8.533L824.89 896l88.178 11.378c31.289-34.134 54.044-73.956 65.422-119.467l-51.2-76.8 54.044-76.8c-14.222-45.511-36.977-88.178-68.266-119.467z" fill="#D9EBF4" /><path d="M722.489 1024c-22.756 0-48.356-2.844-71.111-8.533l-14.222-2.845-34.134-79.644-82.489 5.689L512 927.289C477.867 890.31 452.267 844.8 440.889 793.6l-2.845-11.378 48.356-71.11L438.044 640l2.845-14.222C455.11 577.422 477.867 531.91 512 494.933l8.533-11.377 82.49 8.533 34.133-79.645 14.222-2.844c48.355-14.222 96.71-14.222 145.066 0l14.223 2.844L844.8 492.09l79.644-8.533 8.534 11.377c34.133 36.978 59.733 82.49 71.11 130.845l2.845 11.378-45.51 73.955 48.355 71.111-2.845 14.222c-14.222 48.356-36.977 93.867-71.11 130.845l-11.379 11.378-82.488-8.534-31.29 79.645-14.222 2.844c-25.6 8.534-48.355 11.378-73.955 11.378z m-42.667-62.578c31.29 5.69 59.734 5.69 88.178 0l39.822-93.866 96.711 11.377c19.911-25.6 36.978-54.044 45.511-85.333l-56.888-82.489 56.888-82.489c-8.533-31.289-25.6-59.733-45.51-85.333l-96.712 11.378L768 460.8c-31.289-5.689-59.733-5.689-88.178 0L640 554.667l-96.711-11.378c-19.911 25.6-36.978 54.044-45.511 85.333l56.889 82.49-56.89 82.488c8.534 31.289 25.6 59.733 45.512 85.333L640 867.556l39.822 93.866z" fill="#424242" /><path d="M640 711.111a88.178 82.489 90 1 0 164.978 0 88.178 82.489 90 1 0-164.978 0z" fill="#FFFFFF" /><path d="M722.489 827.733c-59.733 0-110.933-51.2-110.933-116.622S659.91 594.49 722.489 594.49s110.933 51.2 110.933 116.622-48.355 116.622-110.933 116.622z m0-176.355c-28.445 0-54.045 25.6-54.045 59.733s22.756 59.733 54.045 59.733c28.444 0 54.044-25.6 54.044-59.733s-22.755-59.733-54.044-59.733z" fill="#424242" /></svg>