<?xml version="1.0" standalone="no"?><!DOCTYPE svg PUBLIC "-//W3C//DTD SVG 1.1//EN" "http://www.w3.org/Graphics/SVG/1.1/DTD/svg11.dtd"><svg class="icon" width="64px" height="64.00px" viewBox="0 0 1024 1024" version="1.1" xmlns="http://www.w3.org/2000/svg"><path d="M394.088 867.714c-15.35 0-27.908-12.558-27.908-27.908V546.771c0-15.35 12.559-27.908 27.908-27.908s27.908 12.558 27.908 27.908v293.035c0 15.629-12.558 27.908-27.908 27.908z m129.494 0c-15.35 0-27.908-12.558-27.908-27.908V546.771c0-15.35 12.558-27.908 27.908-27.908s27.908 12.558 27.908 27.908v293.035c0 15.629-12.559 27.908-27.908 27.908z m129.773 0c-15.35 0-27.908-12.558-27.908-27.908V546.771c0-15.35 12.558-27.908 27.908-27.908s27.908 12.558 27.908 27.908v293.035c0 15.629-12.559 27.908-27.908 27.908z" fill="#5CB6FF" /><path d="M339.11 99.683l-3.07-25.397a44.653 44.653 0 0 1 10.046-33.769c9.489-11.721 24.56-19.535 41.304-21.21L584.422 0.33c31.815-3.07 58.607 15.628 61.677 42.42l3.07 25.396-55.259 6.977-2.511-19.256h-1.675L392.693 74.844h-0.28l2.233 17.862-55.537 6.977z" fill="#424242" /><path d="M94.913 260.154l-3.907-32.094c-3.35-26.234 4.186-52.188 21.21-73.398 18.977-23.722 48.281-39.072 80.096-42.142l605.049-58.607c61.956-6.14 118.61 35.164 125.586 91.818l4.187 33.49-832.221 80.933zM809.64 109.45c-2.232 0-4.465 0-6.977 0.28l-605.048 58.607c-17.024 1.395-32.374 9.488-41.862 21.21a44.653 44.653 0 0 0-5.582 8.93l707.471-68.375c-10.605-12.558-28.466-20.652-48.002-20.652z" fill="#424242" /><path d="M171.66 388.253h670.354v55.816H171.66z" fill="#005CFF" /><path d="M729.544 1024H300.875c-52.188 0-96.562-41.025-100.47-93.492L152.405 370.39l55.537-4.744 48.002 560.116c1.953 23.722 21.49 42.42 44.932 42.42h428.669c23.443 0 42.978-18.419 44.932-42.14l48.002-560.117 55.537 4.745-48.002 560.116c-4.186 51.909-48.28 93.213-100.47 93.213z" fill="#424242" /><path d="M124.496 285.55v10.048c0 39.35 40.187 71.165 89.864 71.165h601.978c49.677 0 89.864-31.815 89.864-71.165V285.55H124.496z" fill="#D9EBF4" /><path d="M816.06 394.672H214.08c-64.746 0-117.772-44.374-117.772-99.074v-37.955h837.244v37.955c0.28 54.7-52.467 99.074-117.493 99.074z m-658.075-81.213c9.768 14.791 31.536 25.675 56.096 25.675h601.978c24.56 0 46.328-10.605 56.095-25.675H157.985z" fill="#2488FF" /></svg>