<?xml version="1.0" standalone="no"?><!DOCTYPE svg PUBLIC "-//W3C//DTD SVG 1.1//EN" "http://www.w3.org/Graphics/SVG/1.1/DTD/svg11.dtd"><svg class="icon" width="64px" height="56.11px" viewBox="0 0 1168 1024" version="1.1" xmlns="http://www.w3.org/2000/svg"><path d="M33.495 382.804h951.883v68.358H33.495z" fill="#A2D6F9" /><path d="M33.495 334.27h951.883v68.358H33.495zM906.766 171.92H496.62V35.204h310.003c55.37 0 100.144 44.775 100.144 100.144v36.572z" fill="#5CB6FF" /><path d="M931.033 957.01h-836.7C42.383 957.01 0 913.26 0 859.257V92.967C0 41.698 40.331 0 89.89 0h343.84c42.724 0 77.586 35.888 77.586 80.32v83.739h428.262c47.509 0 85.79 39.647 85.79 88.523v606.676c0 54.002-42.383 97.751-94.335 97.751zM89.891 68.357c-11.963 0-21.533 10.937-21.533 24.609v766.29c0 16.407 11.62 29.395 25.976 29.395h836.7c14.355 0 25.975-12.988 25.975-29.394V252.582c0-11.279-7.86-20.165-17.43-20.165h-496.62V80.32c0-6.494-4.444-11.962-9.229-11.962H89.89z" fill="#424242" /><path d="M587.194 716.732a273.431 273.431 0 1 0 546.862 0 273.431 273.431 0 1 0-546.862 0z" fill="#EA421B" /><path d="M860.625 1024c-78.612 0-157.565-30.077-217.378-89.89-119.968-119.968-119.968-315.13 0-435.098s315.13-119.968 435.097 0 119.968 315.13 0 435.097A308.294 308.294 0 0 1 860.624 1024z m0-546.52c-61.18 0-122.702 23.241-169.186 70.066a239.492 239.492 0 0 0 0 338.371c93.309 93.309 245.063 93.309 338.371 0s93.309-245.063 0-338.37a238.33 238.33 0 0 0-169.185-70.068z" fill="#FFFFFF" /><path d="M960.769 748.86H755.696c-18.799 0-34.18-15.38-34.18-34.18s15.381-34.178 34.18-34.178h205.073c18.798 0 34.179 15.38 34.179 34.179s-15.039 34.179-34.179 34.179z" fill="#FFFFFF" /></svg>