<?xml version="1.0" standalone="no"?><!DOCTYPE svg PUBLIC "-//W3C//DTD SVG 1.1//EN" "http://www.w3.org/Graphics/SVG/1.1/DTD/svg11.dtd"><svg class="icon" width="64px" height="64.00px" viewBox="0 0 1024 1024" version="1.1" xmlns="http://www.w3.org/2000/svg"><path d="M32.62 527.601h955.923v56.731H32.62z" fill="#2488FF" /><path d="M512 987.125c-150.338 0-266.637-207.07-266.637-470.87S361.663 42.548 512 42.548c150.338 0 266.637 207.07 266.637 470.87S662.338 987.125 512 987.125z m0-887.845c-113.463 0-209.906 190.05-209.906 414.138 0 224.089 96.443 414.139 209.906 414.139s209.906-190.05 209.906-414.139C721.906 289.33 625.463 99.28 512 99.28z" fill="#2488FF" /><path d="M483.634 59.568h56.732v955.922h-56.732z" fill="#2488FF" /><path d="M512 1021.163c-280.82 0-510.582-229.761-510.582-510.581S231.18 0 512 0s510.582 229.762 510.582 510.582S792.82 1021.163 512 1021.163z m0-964.432c-249.618 0-453.85 204.233-453.85 453.85S262.382 964.433 512 964.433 965.85 760.2 965.85 510.582 761.618 56.732 512 56.732z" fill="#424242" /><path d="M512 385.773c-161.684 0-306.349-76.587-363.08-198.56l-8.51-17.02 14.183-14.182C251.036 59.568 375.845 8.51 512 8.51S772.964 59.568 869.407 156.01l14.183 14.183-8.51 17.02C818.35 306.348 673.684 385.772 512 385.772zM208.488 181.54C262.382 269.474 381.518 329.042 512 329.042s249.618-59.568 303.512-147.502C730.416 104.953 625.462 65.241 512 65.241s-218.416 39.712-303.512 116.3zM509.163 1024c-121.972 0-241.108-45.385-334.714-124.809l-19.856-17.02 17.02-19.855c68.077-102.117 198.559-164.521 343.224-164.521 141.828 0 269.473 59.568 340.387 156.011l14.183 19.856-19.856 17.02C755.945 975.777 633.972 1024 509.163 1024zM234.017 873.662c79.423 62.404 175.867 93.607 275.146 93.607 102.117 0 201.397-34.04 283.657-99.28-62.404-70.914-164.52-113.463-277.983-113.463-116.3 0-221.253 45.385-280.82 119.136z" fill="#424242" /></svg>