<?xml version="1.0" standalone="no"?><!DOCTYPE svg PUBLIC "-//W3C//DTD SVG 1.1//EN" "http://www.w3.org/Graphics/SVG/1.1/DTD/svg11.dtd"><svg class="icon" width="64px" height="56.16px" viewBox="0 0 1167 1024" version="1.1" xmlns="http://www.w3.org/2000/svg"><path d="M33.483998 382.675974H985.049933v68.334995H33.483998z" fill="#A2D6F9" /><path d="M33.483998 334.157977H985.049933v68.334995H33.483998zM893.821939 193.387987H494.403966V56.717996h299.64898c55.350996 0 100.109993 44.759997 100.109993 100.109993v36.559998z" fill="#5CB6FF" /><path d="M930.722936 956.689935H94.302994C42.366997 956.689935 0 912.955938 0 858.970941V92.935994C0 41.683997 40.317997 0 89.859994 0h343.725976c42.708997 0 77.559995 35.875998 77.559995 80.293995v83.709994h428.118971c47.491997 0 85.759994 39.633997 85.759994 88.493994V858.969941c0 53.984996-42.367997 97.718993-94.301994 97.718994zM89.859994 68.334995c-11.959999 0-21.525999 10.933999-21.525999 24.599999v766.035947c0 16.399999 11.616999 29.383998 25.966999 29.383998h836.419942c14.350999 0 25.967998-12.983999 25.967999-29.383998V252.497983c0-11.274999-7.858999-20.158999-17.424999-20.158999H442.80997V80.293995c0-6.492-4.442-11.958999-9.225-11.959H89.859994z" fill="#424242" /><path d="M586.99796 716.491951a273.339981 273.339981 0 1 0 546.679963 0 273.339981 273.339981 0 1 0-546.679963 0z" fill="#2488FF" /><path d="M860.337941 1023.99993c-82.001994 0-159.562989-32.116998-217.305985-90.201994a305.525979 305.525979 0 0 1-90.201994-217.305985c0-82.001994 32.117998-159.219989 90.201994-217.304985 119.927992-119.927992 315.024978-119.927992 434.95297 0s119.927992 315.024978 0 434.95197A308.019979 308.019979 0 0 1 860.337941 1023.99993z m0-546.679963c-61.159996 0-122.319992 23.233998-169.129988 70.042996a237.805984 237.805984 0 0 0-70.042995 169.129988c0 63.892996 24.941998 124.027992 70.043995 169.128988s105.234993 70.042995 169.128988 70.042996 124.027992-24.941998 169.128989-70.042996a239.411984 239.411984 0 0 0 0-338.258976 238.249984 238.249984 0 0 0-169.129989-70.042996z" fill="#FFFFFF" /><path d="M960.447934 750.659949H755.442948c-18.791999 0-34.166998-15.374999-34.166997-34.167998s15.374999-34.166998 34.166997-34.166998h205.004986c18.792999 0 34.167998 15.374999 34.167998 34.166998s-15.033999 34.167998-34.167998 34.167998z" fill="#FFFFFF" /><path d="M857.945941 853.161942c-18.791999 0-34.167998-15.374999-34.167997-34.166998V613.989958c0-18.791999 15.375999-34.167998 34.167997-34.167998s34.166998 15.375999 34.166998 34.167998v205.004986c0 18.791999-15.032999 34.166998-34.166998 34.166998z" fill="#FFFFFF" /></svg>