<?xml version="1.0" standalone="no"?><!DOCTYPE svg PUBLIC "-//W3C//DTD SVG 1.1//EN" "http://www.w3.org/Graphics/SVG/1.1/DTD/svg11.dtd"><svg class="icon" width="64px" height="56.50px" viewBox="0 0 1160 1024" version="1.1" xmlns="http://www.w3.org/2000/svg"><path d="M63.488 460.459h1033.216v68.266H63.488z" fill="#A2D6F9" /><path d="M865.28 952.661h-68.267v-90.453H363.52v90.453h-68.267V848.213c0-30.037 24.235-54.272 54.272-54.272h461.483c30.037 0 54.272 24.235 54.272 54.272v104.448z" fill="#5CB6FF" /><path d="M573.099 266.24h-68.267V95.573h324.95c79.53 0 144.383 67.243 144.383 149.846H905.9c0-45.056-34.134-81.579-76.118-81.579H573.1v102.4z" fill="#2488FF" /><path d="M63.488 416.427h1033.216v68.266H63.488z" fill="#5CB6FF" /><path d="M1057.792 1024h-955.05A102.741 102.741 0 0 1 0 921.6V97.28C0 43.69 43.69 0 97.621 0h392.192c46.08 0 83.968 37.547 83.968 83.627v156.33h493.91c51.2 0 92.842 41.643 92.842 92.843v588.8c0 56.32-46.08 102.4-102.741 102.4zM97.622 68.267c-16.043 0-29.355 12.97-29.355 29.013V921.6c0 18.773 15.36 34.133 34.474 34.133h955.051c19.115 0 34.475-15.36 34.475-34.133V332.8a24.474 24.474 0 0 0-24.576-24.576H505.515V83.627c0-8.534-6.827-15.36-15.702-15.36H97.621z" fill="#424242" /></svg>