<?xml version="1.0" standalone="no"?><!DOCTYPE svg PUBLIC "-//W3C//DTD SVG 1.1//EN" "http://www.w3.org/Graphics/SVG/1.1/DTD/svg11.dtd"><svg class="icon" width="64px" height="64.00px" viewBox="0 0 1024 1024" version="1.1" xmlns="http://www.w3.org/2000/svg"><path fill="#ffffff" d="M512 477.866667c56.32 0 102.4-46.08 102.4-102.4s-46.08-102.4-102.4-102.4-102.4 46.08-102.4 102.4 46.08 102.4 102.4 102.4z m0-136.533334c18.773333 0 34.133333 15.36 34.133333 34.133334s-15.36 34.133333-34.133333 34.133333-34.133333-15.36-34.133333-34.133333 15.36-34.133333 34.133333-34.133334z m-209.237333 209.92c8.874667 10.922667 17.408 21.504 24.234666 32.085334l3.072 4.096 155.989334 182.272c6.485333 7.509333 16.042667 11.946667 25.941333 11.946666s19.456-4.437333 25.941333-11.946666l155.989334-182.272 3.072-4.096c6.826667-10.922667 15.36-21.504 24.576-32.426667l2.389333-3.072a272.145067 272.145067 0 0 0-18.773333-365.568A271.325867 271.325867 0 0 0 512 102.4c-73.045333 0-141.653333 28.330667-193.194667 79.872a272.4864 272.4864 0 0 0-18.773333 365.568l2.730667 3.413333z m64.512-320.512C405.845333 191.829333 457.386667 170.666667 512 170.666667s106.154667 21.162667 144.725333 60.074666a203.9808 203.9808 0 0 1 13.994667 274.090667l-2.389333 2.730667c-9.557333 11.605333-19.456 23.552-27.989334 37.205333L512 694.954667l-128.341333-150.186667c-8.533333-13.653333-18.432-25.6-27.648-36.864l-2.730667-3.072a203.605333 203.605333 0 0 1 13.994667-274.090667z m619.861333 643.413334l-102.4-238.933334c-5.461333-12.629333-17.749333-20.821333-31.402667-20.821333h-136.533333v68.266667h114.005333l73.045334 170.666666H120.149333l73.045334-170.666666H307.2v-68.266667H170.666667c-13.653333 0-25.941333 8.192-31.402667 20.821333l-102.4 238.933334c-4.437333 10.581333-3.413333 22.528 2.730667 32.085333 6.485333 9.557333 17.066667 15.36 28.672 15.36h887.466666c11.605333 0 22.186667-5.802667 28.330667-15.36 6.485333-9.557333 7.509333-21.504 3.072-32.085333z" /></svg>