<?xml version="1.0" standalone="no"?><!DOCTYPE svg PUBLIC "-//W3C//DTD SVG 1.1//EN" "http://www.w3.org/Graphics/SVG/1.1/DTD/svg11.dtd"><svg class="icon" width="64px" height="64.00px" viewBox="0 0 1024 1024" version="1.1" xmlns="http://www.w3.org/2000/svg"><path fill="#ffffff" d="M288 896v-128H160l32-32h96v-96l32-32v128h192v-32h32v32h192v-192h-32v-32h32v-192h-128l32-32h96V96h160a32 32 0 0 1 32 32v768a32 32 0 0 1-32 32H128a32 32 0 0 1-32-32v-128h32v128h160z m32 0h192v-128h-192v128z m224 0h192v-128h-192v128z m224 0h128v-128h-128v128z m128-160v-192h-128v192h128z m0-224v-192h-128v192h128z m0-224V128h-128v160h128zM128 128v320l-32 32V128a32 32 0 0 1 32-32h320l-32 32H128z m77.248 122.496l45.248-45.248a64 64 0 0 1 90.528 0l181.024 181.024a64 64 0 0 1 0 90.496l-45.28 45.28a64 64 0 0 1-90.496 0l-181.024-181.024a64 64 0 0 1 0-90.528z m-3.52 177.472l113.12 113.152-169.696 169.696L32 597.696l169.696-169.728z m226.24-226.24L597.696 32l113.12 113.152-169.696 169.696-113.152-113.152z m64.64 389.12l98.24-98.24a64 64 0 0 1 45.28-18.752h17.6a18.272 18.272 0 0 1 12.928 31.168l-161.6 161.6a18.272 18.272 0 0 1-31.2-12.896v-17.6a64 64 0 0 1 18.72-45.28z" /></svg>