<?xml version="1.0" standalone="no"?><!DOCTYPE svg PUBLIC "-//W3C//DTD SVG 1.1//EN" "http://www.w3.org/Graphics/SVG/1.1/DTD/svg11.dtd"><svg class="icon" width="64px" height="63.75px" viewBox="0 0 1028 1024" version="1.1" xmlns="http://www.w3.org/2000/svg"><path fill="#ffffff" d="M640.254879 1024H385.988053v-30.585424c0-195.950617-159.452011-355.402628-355.402629-355.402629H0V383.745121h30.585424c162.918359 0 316.049383 63.413779 431.050578 178.618877C576.841099 677.365193 640.254879 830.496217 640.254879 993.414576v30.585424z m-194.115492-61.170848h132.129032C562.975707 684.705695 339.294305 461.024293 61.170848 445.731581v132.129032c205.53405 14.884906 370.083632 179.434488 384.968539 384.968539z"  /><path fill="#ffffff" d="M254.266826 1024H127.031462C57.092792 1024 0 966.907208 0 896.968538v-127.031461h30.585424c123.361211 0 223.681402 100.320191 223.681402 223.681402V1024zM61.170848 833.758662v63.005974c0 36.294703 29.56591 65.860613 65.860614 65.860613h63.005973c-12.438072-64.841099-63.821585-116.224612-128.866587-128.866587zM899.21147 1024h-127.031462v-30.585424c0-408.825169-332.565512-741.594584-741.594584-741.594584H0V124.78853C0 66.064516 39.761051 15.292712 96.853843 1.223417l4.689765-1.223417 4.893668 0.407806c236.731183 17.943449 459.800876 120.506571 628.224612 288.726403 168.423736 168.423736 270.986858 391.493429 288.726404 628.224612l0.407805 4.893668-1.223417 4.689765c-13.865392 57.296695-64.637196 97.057746-123.36121 97.057746z m-66.472322-61.170848H899.21147c28.954202 0 54.238152-18.75906 62.80207-45.878136-36.702509-452.256472-402.708084-818.262047-854.964556-854.964556C79.929908 70.550378 61.170848 95.834329 61.170848 124.78853v66.472322c97.465552 3.670251 192.280366 24.672242 281.793708 62.598168 95.630426 40.37276 181.473517 98.281163 255.082437 172.093987 73.812824 73.812824 131.517324 159.655914 172.093987 255.082437 37.925926 89.513341 58.927917 184.328156 62.598168 281.793708z"  /></svg>